<?xml version="1.0" encoding="UTF-8"?>
<svg width="309px" height="120px" viewBox="0 0 309 120" version="1.1" xmlns="http://www.w3.org/2000/svg" xmlns:xlink="http://www.w3.org/1999/xlink">
    <!-- Generator: Sketch 54.1 (76490) - https://sketchapp.com -->
    <title>Group 8</title>
    <desc>Created with Sketch.</desc>
    <defs>
        <linearGradient x1="-3.58256802%" y1="89.6847264%" x2="157.11262%" y2="3.87345243%" id="linearGradient-1">
            <stop stop-color="#B6DA7A" offset="0%"></stop>
            <stop stop-color="#59A700" offset="100%"></stop>
        </linearGradient>
        <linearGradient x1="-3.58256802%" y1="140.716164%" x2="157.11262%" y2="-55.4416603%" id="linearGradient-2">
            <stop stop-color="#B6DA7A" offset="0%"></stop>
            <stop stop-color="#59A700" offset="100%"></stop>
        </linearGradient>
        <linearGradient x1="-3.58256802%" y1="180.477727%" x2="157.11262%" y2="-101.657518%" id="linearGradient-3">
            <stop stop-color="#B6DA7A" offset="0%"></stop>
            <stop stop-color="#59A700" offset="100%"></stop>
        </linearGradient>
        <linearGradient x1="6.24944758%" y1="182.242543%" x2="137.458225%" y2="-103.708807%" id="linearGradient-4">
            <stop stop-color="#B6DA7A" offset="0%"></stop>
            <stop stop-color="#59A700" offset="100%"></stop>
        </linearGradient>
        <linearGradient x1="31.3266616%" y1="182.242543%" x2="87.328375%" y2="-103.708807%" id="linearGradient-5">
            <stop stop-color="#B6DA7A" offset="0%"></stop>
            <stop stop-color="#59A700" offset="100%"></stop>
        </linearGradient>
        <linearGradient x1="-3.58256802%" y1="182.242543%" x2="157.11262%" y2="-103.708807%" id="linearGradient-6">
            <stop stop-color="#B6DA7A" offset="0%"></stop>
            <stop stop-color="#59A700" offset="100%"></stop>
        </linearGradient>
    </defs>
    <g id="Round-One" stroke="none" stroke-width="1" fill="none" fill-rule="evenodd">
        <g id="SOL-/-Lander" transform="translate(-1270.000000, -392.000000)" fill-rule="nonzero">
            <g id="Group-8" transform="translate(1270.000000, 392.000000)">
                <g id="NVIDIA-SOL-Logo">
                    <g id="Group" transform="translate(148.000000, 0.000000)" fill="#000000">
                        <g>
                            <polygon id="Path" points="21.9710782 36.6181343 7.37959879 14.1352676 7.37959879 36.6181343 0.167718154 36.6181343 0.167718154 0 6.59691407 0 21.1883935 22.427216 21.1883935 0 28.4002741 0 28.4002741 36.6181343"></polygon>
                            <polygon id="Path" points="50.7067887 36.6181343 45.3398077 36.6181343 33.1522885 0 40.5877933 0 47.9673921 23.8741331 55.402897 0 62.8943079 0"></polygon>
                            <polygon id="Path" points="67.7022283 36.6181343 67.7022283 0 74.9141089 0 74.9141089 36.6181343"></polygon>
                            <path d="M105.606531,33.1121427 C103.202571,35.5051211 99.7363958,36.6181343 95.8788782,36.6181343 L82.573238,36.6181343 L82.573238,0 L95.8788782,0 C99.6804897,0 103.146665,1.05736254 105.606531,3.50599158 C109.743579,7.62414042 109.352237,12.6883505 109.352237,18.1977658 C109.352237,23.7071812 109.743579,29.0496445 105.606531,33.1121427 Z M100.574987,8.6258523 C99.3450534,7.12328448 97.6678719,6.34417524 95.2080056,6.34417524 L89.7851186,6.34417524 L89.7851186,30.2183084 L95.2080056,30.2183084 C97.6678719,30.2183084 99.3450534,29.4391992 100.574987,27.9366313 C101.916732,26.2671115 102.140356,23.6515305 102.140356,18.0864645 C102.140356,12.5213985 101.916732,10.2953721 100.574987,8.6258523 Z" id="Shape"></path>
                            <polygon id="Path" points="116.060963 36.6181343 116.060963 0 123.272843 0 123.272843 36.6181343"></polygon>
                            <path d="M152.958957,36.6181343 L150.778621,30.1070071 L137.696605,30.1070071 L135.460363,36.6181343 L127.968952,36.6181343 L141.386404,0 L147.032915,0 L160.450368,36.6181343 L152.958957,36.6181343 Z M144.349425,10.796228 L139.709223,24.0967358 L148.877815,24.0967358 L144.349425,10.796228 Z" id="Shape"></path>
                        </g>
                        <g transform="translate(0.000000, 49.000000)">
                            <path d="M23.5364477,70.4160882 C13.1938281,70.4160882 6.65282012,67.6104472 0.279530257,61.3390143 L4.0252357,57.6531722 C10.2867135,63.8145799 15.5418823,65.7950324 23.871884,65.7950324 C34.9971882,65.7950324 41.8736325,60.5688384 41.8736325,51.6017896 C41.8736325,47.4208344 40.6996055,44.1750928 38.016115,41.9195775 C35.3885306,39.8841125 33.711349,39.0039114 27.8971197,38.2337354 L19.7348362,36.9684463 C14.4237613,36.1982703 10.2867135,34.5478933 7.26778669,31.9623025 C3.63389334,28.9916238 1.78899365,24.7006434 1.78899365,19.3094117 C1.78899365,7.70175965 10.0630893,0.440100551 23.4805416,0.440100551 C32.1459796,0.440100551 37.6247726,2.75062845 43.6067201,7.86679735 L40.1405449,11.2225641 C36.0034971,7.37168423 31.4192009,4.84110606 23.1451053,4.84110606 C12.9142979,4.84110606 6.93235038,10.2323378 6.93235038,19.0343488 C6.93235038,22.9952538 8.10637746,26.0209451 10.5662437,28.0013976 C13.02611,30.0368626 17.0513457,31.5772146 20.9647693,32.2373654 L28.5120862,33.3926293 C35.1090003,34.2728304 38.1279271,35.5381195 40.9791357,37.9586726 C44.8366533,41.0393764 47.0728953,45.7704573 47.0728953,51.2717142 C47.0728953,63.044404 38.1279271,70.4160882 23.5364477,70.4160882 Z" id="Path"></path>
                            <path d="M98.3946505,63.3744794 C93.7544483,67.9405226 87.6047826,70.4160882 80.8960564,70.4160882 C74.2432363,70.4160882 68.0376646,67.88551 63.3974623,63.3744794 C57.0241725,57.1030465 56.9123604,50.8866262 56.9123604,35.4280944 C56.9123604,19.8595374 57.0241725,13.7531422 63.3974623,7.48170937 C68.0376646,2.91566615 74.1873303,0.440100551 80.8960564,0.440100551 C87.5488766,0.440100551 93.7544483,2.97067872 98.3946505,7.48170937 C104.76794,13.7531422 104.879753,19.8595374 104.879753,35.4280944 C104.879753,50.8866262 104.76794,57.1030465 98.3946505,63.3744794 Z M94.2016967,10.3973755 C90.6796154,6.93158368 85.9276011,5.06115634 80.9519625,5.06115634 C75.9204179,5.06115634 71.2243095,6.87657111 67.7022283,10.3973755 C62.6706837,15.3485067 62.2793413,20.7397385 62.2793413,35.4280944 C62.2793413,50.1164503 62.6706837,55.5626946 67.7022283,60.4588132 C71.2243095,63.9246051 75.9763239,65.7950324 80.9519625,65.7950324 C85.9835071,65.7950324 90.6796154,63.9796176 94.2016967,60.4588132 C99.2332413,55.507682 99.6245837,50.1164503 99.6245837,35.4280944 C99.6245837,20.7397385 99.1773353,15.2934942 94.2016967,10.3973755 Z" id="Shape"></path>
                            <polygon id="Path" points="118.017675 0.99022624 123.328749 0.99022624 123.328749 65.1898942 160.450368 65.1898942 160.450368 69.81095 118.017675 69.81095"></polygon>
                        </g>
                    </g>
                    <g id="Group-9">
                        <g id="Group">
                            <path d="M76.5503387,43.2273668 C76.6625004,43.1159561 76.7185812,43.0045454 76.8307429,42.8931346 C68.3625369,48.6307877 32.5268839,71.7485161 4.03782006,75.9264188 C2.69188004,76.1492403 1.34594002,76.3163564 0.0560808342,76.4834725 L0.0560808342,84.9506887 C3.25268839,84.0036974 6.61753844,82.9452954 10.2627927,81.7754826 C34.489713,74.0881416 67.8578094,49.7448951 76.5503387,43.2273668 Z" id="Path" fill="url(#linearGradient-1)"></path>
                            <path d="M75.7091262,44.2857689 C75.8773687,44.0629474 76.0456112,43.8401259 76.2699345,43.5615991 C67.4091627,50.8032971 36.0038956,75.8707134 14.7492594,86.1205015 C9.25333765,88.7943592 4.37430507,91.0782794 -3.55271368e-15,93.0836727 L-3.55271368e-15,106.731488 C7.90739763,101.383773 13.2911577,97.2615754 22.5444954,90.0198773 C39.593069,76.7619994 66.7361927,52.4187528 75.7091262,44.2857689 Z" id="Path" fill="url(#linearGradient-2)"></path>
                            <path d="M0,0 L0,71.4142839 C31.5174288,69.7431228 68.6429411,47.8509125 76.9429046,42.6703131 C79.8030271,38.882348 84.4016555,32.3091144 84.4016555,28.9667922 C84.4016555,24.0090143 74.6435904,12.3108867 74.6435904,12.3108867 C74.6435904,12.3108867 86.4205655,22.003621 91.4117598,22.003621 C96.402954,22.003621 108.179929,12.3108867 108.179929,12.3108867 C108.179929,12.3108867 98.4218641,24.0090143 98.4218641,28.9667922 C98.4218641,33.9245701 108.179929,45.6226977 108.179929,45.6226977 C108.179929,45.6226977 96.402954,35.9299634 91.4117598,35.9299634 C88.1029906,35.9299634 81.7097755,40.2749822 77.8401979,43.1159561 C77.7280362,43.2273668 77.5597937,43.3387776 77.3915512,43.4501883 C71.6713061,51.8616991 48.7903258,87.2903142 47.3322241,117.204098 C47.2761433,118.039678 47.2761433,118.875259 47.2200624,119.710839 L120.517713,119.710839 L120.517713,0 L0,0 Z" id="Path" fill="url(#linearGradient-3)"></path>
                            <path d="M76.0456112,44.5085903 C75.5408837,44.8985279 75.092237,45.2884655 74.8118329,45.4555816 C65.4463335,54.8697891 41.2194132,79.4915625 27.8160938,95.1447713 C19.2357261,105.116032 14.8053402,110.352337 8.01955929,119.766545 L23.1053037,119.766545 C25.5167796,114.808767 28.432983,109.182524 31.9660755,102.553585 C42.5092723,82.7224739 67.9138902,53.5885656 76.0456112,44.5085903 C76.0456112,44.452885 76.0456112,44.5085903 76.0456112,44.5085903 Z" id="Path" fill="url(#linearGradient-4)"></path>
                            <path d="M76.6625004,44.007242 C69.3719919,52.8643958 44.5281824,84.0594028 36.5086231,106.898604 C34.8822789,111.577855 33.4241772,115.811463 32.1903988,119.766545 L41.611979,119.766545 C41.948464,117.53833 42.284949,115.25441 42.6775148,112.803374 C46.9957391,85.89768 70.8300936,52.1959313 77.1111471,43.6730098 C76.9429046,43.7844205 76.8307429,43.8958313 76.6625004,44.007242 Z" id="Path" fill="url(#linearGradient-5)"></path>
                        </g>
                        <path d="M82.6833333,20.1666667 C85.7519033,22.0712963 89.0320988,23.711394 91.2541667,23.711394 C93.4762346,23.711394 96.75643,22.0712963 99.825,20.1666667 C97.9203704,23.2352366 96.2802726,26.5154321 96.2802726,28.7375 C96.2802726,30.9595679 97.9203704,34.2397634 99.825,37.3083333 C96.75643,35.4037037 93.4762346,33.763606 91.2541667,33.763606 C89.2966307,33.763606 86.4396862,34.9804527 82.6833333,37.3083333 C84.587963,34.2397634 86.2280607,30.9595679 86.2280607,28.7375 C86.2280607,26.5154321 84.587963,23.2352366 82.6833333,20.1666667" id="Path" fill="url(#linearGradient-6)"></path>
                    </g>
                </g>
            </g>
        </g>
    </g>
</svg>