<?xml version="1.0" encoding="utf-8"?>
<!-- Generator: Adobe Illustrator 23.0.4, SVG Export Plug-In . SVG Version: 6.00 Build 0)  -->
<svg version="1.1" id="Layer_1" xmlns="http://www.w3.org/2000/svg" xmlns:xlink="http://www.w3.org/1999/xlink" x="0px" y="0px"
	 viewBox="0 0 41.9 33.6" style="enable-background:new 0 0 41.9 33.6;" xml:space="preserve">
<path d="M32.9,18.6l7.5,2.1l1.1-3.9l-8.5-2.4v-2.2c0-0.7-0.1-1.4-0.2-2.1l0.1-0.1c0,0,0,0,0,0l0,0L40,5.9l-2-3.5l-6.6,3.8
	c-2.1-3.6-6-6.1-10.4-6.1c-4.5,0-8.4,2.4-10.4,6.1L3.9,2.4l-2,3.5l7.2,4.2c-0.1,0.7-0.2,1.4-0.2,2.1v2.2l-8.5,2.4l1.1,3.9l7.5-2.1
	v1.6c0,1.7,0.4,3.3,1,4.8l-5.4,5.4l2.8,2.8l4.9-4.9c2.2,2.3,5.3,3.8,8.7,3.8c3.4,0,6.5-1.5,8.7-3.8l4.9,4.9l2.8-2.8L31.9,25
	c0.7-1.5,1-3.1,1-4.8V18.6z M20.9,4.2c2.7,0,5.1,1.3,6.5,3.4c-1.9,0.4-4,0.6-6.4,0.6c-2.5,0-4.7-0.2-6.6-0.6
	C15.9,5.5,18.2,4.2,20.9,4.2z M22.9,27.9V16.2h-4v11.7c-3.4-0.9-6-4-6-7.7v-8c0-0.3,0-0.6,0.1-0.9c2.3,0.5,5,0.9,8,0.9
	c3,0,5.6-0.3,7.9-0.8c0,0.3,0,0.6,0,0.9v8C28.9,23.9,26.4,27,22.9,27.9z"/>
</svg>
